P2
24 7
248
48 48 48 48 48 48 48 48 48 48 48 48 48 48 48 48 48 48 48 48 48 48 48 48
48 88 88 88 88 48 48 178 178 178 178 48 48 218 218 218 218 48 48 248 248 248 248 48
48 88 48 48 48 48 48 178 48 48 48 48 48 218 48 48 48 48 48 248 48 48 248 48
48 88 88 88 48 48 48 178 178 178 48 48 48 218 218 218 48 48 48 248 248 248 248 48
48 88 48 48 48 48 48 178 48 48 48 48 48 218 48 48 48 48 48 248 48 48 48 48
48 88 48 48 48 48 48 178 178 178 178 48 48 218 218 218 218 48 48 248 48 48 48 48
48 48 48 48 48 48 48 48 48 48 48 48 48 48 48 48 48 48 48 48 48 48 48 48
