P2
24 7
247
46 46 46 46 46 46 46 46 46 46 46 46 46 46 46 46 46 46 46 46 46 46 46 46
46 85 85 85 85 46 46 177 177 177 177 46 46 216 216 216 216 46 46 247 247 247 247 46
46 85 46 46 46 46 46 177 46 46 46 46 46 216 46 46 46 46 46 247 46 46 247 46
46 85 85 85 46 46 46 177 177 177 46 46 46 216 216 216 46 46 46 247 247 247 247 46
46 85 46 46 46 46 46 177 46 46 46 46 46 216 46 46 46 46 46 247 46 46 46 46
46 85 46 46 46 46 46 177 177 177 177 46 46 216 216 216 216 46 46 247 46 46 46 46
46 46 46 46 46 46 46 46 46 46 46 46 46 46 46 46 46 46 46 46 46 46 46 46
